<?xml version="1.0" encoding="UTF-8" standalone="no"?>
<!-- Created with Inkscape (http://www.inkscape.org/) -->

<svg
   width="203.78712mm"
   height="29.790182mm"
   viewBox="0 0 203.78712 29.790182"
   version="1.1"
   id="svg5"
   inkscape:version="1.1 (c68e22c387, 2021-05-23)"
   sodipodi:docname="kompassi_logo.svg"
   xmlns:inkscape="http://www.inkscape.org/namespaces/inkscape"
   xmlns:sodipodi="http://sodipodi.sourceforge.net/DTD/sodipodi-0.dtd"
   xmlns="http://www.w3.org/2000/svg"
   xmlns:svg="http://www.w3.org/2000/svg">
  <sodipodi:namedview
     id="namedview7"
     pagecolor="#ffffff"
     bordercolor="#666666"
     borderopacity="1.0"
     inkscape:pageshadow="2"
     inkscape:pageopacity="0.0"
     inkscape:pagecheckerboard="0"
     inkscape:document-units="mm"
     showgrid="false"
     fit-margin-top="0"
     fit-margin-left="0"
     fit-margin-right="0"
     fit-margin-bottom="0"
     inkscape:zoom="0.74118967"
     inkscape:cx="316.38325"
     inkscape:cy="378.44564"
     inkscape:window-width="1920"
     inkscape:window-height="1017"
     inkscape:window-x="-8"
     inkscape:window-y="1072"
     inkscape:window-maximized="1"
     inkscape:current-layer="layer1" />
  <defs
     id="defs2" />
  <g
     inkscape:label="Layer 1"
     inkscape:groupmode="layer"
     id="layer1"
     transform="translate(-4.3996051,-105.30508)">
    <g
       aria-label="KOMPASSI"
       id="text1287"
       style="font-size:39.3361px;line-height:1.25;stroke-width:0.983408">
      <path
         d="m 27.294445,134.49985 h -4.936219 l -11.312971,-12.7343 -2.8426479,3.03472 v 9.69958 H 4.3996051 V 105.9005 h 3.803002 v 14.92391 L 22.089327,105.9005 h 4.609699 l -12.772709,13.44496 z"
         id="path11027" />
      <path
         d="m 52.494136,109.18491 q 1.747844,1.92071 2.669784,4.70574 0.941147,2.78503 0.941147,6.31913 0,3.5341 -0.960354,6.33834 -0.941147,2.78502 -2.650577,4.64811 -1.767052,1.93991 -4.187144,2.91948 -2.400885,0.97956 -5.493225,0.97956 -3.015511,0 -5.493225,-0.99877 -2.458506,-0.99877 -4.187144,-2.90027 -1.728637,-1.9015 -2.669784,-4.66732 -0.92194,-2.76582 -0.92194,-6.31913 0,-3.49569 0.92194,-6.26151 0.92194,-2.78503 2.688992,-4.76336 1.690223,-1.88229 4.187143,-2.88106 2.516128,-0.99877 5.474018,-0.99877 3.073133,0 5.512432,1.01798 2.458507,0.99877 4.167937,2.86185 z m -0.345728,11.02487 q 0,-5.57005 -2.49692,-8.58557 -2.496921,-3.03471 -6.818514,-3.03471 -4.360007,0 -6.856928,3.03471 -2.477713,3.01552 -2.477713,8.58557 0,5.62767 2.535335,8.62398 2.535334,2.9771 6.799306,2.9771 4.263972,0 6.7801,-2.9771 2.535334,-2.99631 2.535334,-8.62398 z"
         id="path11029" />
      <path
         d="m 87.604678,134.49985 h -3.803002 v -24.64269 l -7.951731,16.76778 h -2.266436 l -7.89411,-16.76778 v 24.64269 h -3.55331 V 105.9005 h 5.185912 l 7.625211,15.92267 7.375519,-15.92267 h 5.281947 z"
         id="path11031" />
      <path
         d="m 113.99521,114.54369 q 0,1.9015 -0.67225,3.5341 -0.65304,1.6134 -1.84388,2.80424 -1.47895,1.47894 -3.49569,2.22802 -2.01674,0.72987 -5.08988,0.72987 h -3.802998 v 10.65993 H 95.28751 V 105.9005 h 7.75966 q 2.57375,0 4.36001,0.44177 1.78626,0.42255 3.16917,1.34449 1.6326,1.09481 2.51612,2.72741 0.90274,1.6326 0.90274,4.12952 z m -3.95666,0.096 q 0,-1.47895 -0.51859,-2.57375 -0.51859,-1.09481 -1.57498,-1.78626 -0.92194,-0.59542 -2.11278,-0.84511 -1.17163,-0.2689 -2.9771,-0.2689 h -3.764588 v 11.42821 h 3.207578 q 2.30485,0 3.74539,-0.40335 1.44053,-0.42255 2.34326,-1.32529 0.90273,-0.92194 1.26767,-1.93991 0.38414,-1.01798 0.38414,-2.28564 z"
         id="path11033" />
      <path
         d="m 140.59701,134.49985 h -4.05269 l -2.80423,-7.97094 h -12.36936 l -2.80424,7.97094 h -3.86062 l 10.41024,-28.59935 h 5.07067 z m -8.02856,-11.23614 -5.01304,-14.04038 -5.03226,14.04038 z"
         id="path11035" />
      <path
         d="m 165.5278,126.33684 q 0,1.67101 -0.78749,3.30362 -0.76828,1.6326 -2.1704,2.76582 -1.53657,1.22925 -3.59172,1.9207 -2.03595,0.69146 -4.91702,0.69146 -3.09234,0 -5.57005,-0.57621 -2.45851,-0.57622 -5.01305,-1.70943 v -4.76336 h 0.2689 q 2.1704,1.80547 5.01305,2.78503 2.84265,0.97956 5.33957,0.97956 3.5341,0 5.49322,-1.32529 1.97833,-1.32529 1.97833,-3.5341 0,-1.9015 -0.94115,-2.80424 -0.92194,-0.90273 -2.82344,-1.40211 -1.44053,-0.38415 -3.13075,-0.63384 -1.67102,-0.24969 -3.55331,-0.63383 -3.803,-0.8067 -5.64688,-2.74661 -1.82467,-1.95913 -1.82467,-5.08988 0,-3.59172 3.03471,-5.87737 3.03472,-2.30485 7.70204,-2.30485 3.01552,0 5.53164,0.57622 2.51613,0.57621 4.45605,1.42132 v 4.49446 h -0.2689 q -1.63261,-1.38291 -4.30239,-2.28565 -2.65058,-0.92194 -5.4356,-0.92194 -3.05393,0 -4.91702,1.26767 -1.84388,1.26767 -1.84388,3.2652 0,1.78626 0.92194,2.80424 0.92194,1.01797 3.246,1.55577 1.22925,0.2689 3.49569,0.65304 2.26643,0.38414 3.84142,0.78749 3.18837,0.84511 4.80177,2.55454 1.61339,1.70944 1.61339,4.78257 z"
         id="path11037" />
      <path
         d="m 191.99516,126.33684 q 0,1.67101 -0.78749,3.30362 -0.76828,1.6326 -2.1704,2.76582 -1.53657,1.22925 -3.59172,1.9207 -2.03595,0.69146 -4.91702,0.69146 -3.09234,0 -5.57005,-0.57621 -2.45851,-0.57622 -5.01305,-1.70943 v -4.76336 h 0.2689 q 2.1704,1.80547 5.01305,2.78503 2.84265,0.97956 5.33957,0.97956 3.5341,0 5.49322,-1.32529 1.97833,-1.32529 1.97833,-3.5341 0,-1.9015 -0.94114,-2.80424 -0.92194,-0.90273 -2.82344,-1.40211 -1.44054,-0.38415 -3.13076,-0.63384 -1.67101,-0.24969 -3.55331,-0.63383 -3.803,-0.8067 -5.64688,-2.74661 -1.82467,-1.95913 -1.82467,-5.08988 0,-3.59172 3.03472,-5.87737 3.03471,-2.30485 7.70203,-2.30485 3.01552,0 5.53164,0.57622 2.51613,0.57621 4.45605,1.42132 v 4.49446 h -0.2689 q -1.6326,-1.38291 -4.30239,-2.28565 -2.65058,-0.92194 -5.4356,-0.92194 -3.05393,0 -4.91701,1.26767 -1.84388,1.26767 -1.84388,3.2652 0,1.78626 0.92194,2.80424 0.92194,1.01797 3.24599,1.55577 1.22926,0.2689 3.49569,0.65304 2.26644,0.38414 3.84142,0.78749 3.18837,0.84511 4.80177,2.55454 1.61339,1.70944 1.61339,4.78257 z"
         id="path11039" />
      <path
         d="m 208.18673,134.49985 h -11.29377 v -2.91948 h 3.74538 v -22.76039 h -3.74538 v -2.91948 h 11.29377 v 2.91948 h -3.74539 v 22.76039 h 3.74539 z"
         id="path11041" />
    </g>
  </g>
</svg>
